<svg id="Capa_1" enable-background="new 0 0 512 512" height="512" viewBox="0 0 512 512" width="512" xmlns="http://www.w3.org/2000/svg"><g><g><g><path d="m287.607 37.609h-248.662c-17.367 0-31.445 14.079-31.445 31.445v156.362c0 17.23 13.86 31.216 31.038 31.435v73.055c0 4.582 5.782 6.59 8.623 2.995l56.284-71.256c2.386-3.021 6.024-4.784 9.874-4.784h174.289c17.367 0 31.445-14.078 31.445-31.445v-156.362c-.001-17.366-14.079-31.445-31.446-31.445z" fill="#e49542"/><g fill="#e27d47"><path d="m287.607 37.609h-63.052c17.367 0 31.445 14.078 31.445 31.445v156.362c0 17.367-14.078 31.445-31.445 31.445h63.052c17.367 0 31.445-14.078 31.445-31.445v-156.362c0-17.366-14.078-31.445-31.445-31.445z"/><path d="m40.392 261.644-1.854 2.347v65.914c0 4.582 5.782 6.59 8.623 2.995l56.284-71.256c2.386-3.021 6.024-4.784 9.874-4.784h-63.053c-3.85.001-7.488 1.763-9.874 4.784z"/></g><path d="m182.732 133.048h285.646c19.949 0 36.122 16.172 36.122 36.122v179.617c0 19.792-15.921 35.858-35.654 36.11v83.921c0 5.263-6.643 7.57-9.905 3.44l-64.655-81.854c-2.741-3.47-6.92-5.495-11.343-5.495h-200.211c-19.949 0-36.122-16.172-36.122-36.122v-179.617c.001-19.949 16.173-36.122 36.122-36.122z" fill="#b1e4f9"/><path d="m468.378 133.048h-62.634c19.949 0 36.122 16.172 36.122 36.122v179.617c0 14.294-8.304 26.645-20.352 32.499-9.231 4.485-15.302 13.609-15.302 23.872v.344l52.729 66.756c3.263 4.13 9.905 1.823 9.905-3.44v-83.92c19.733-.252 35.654-16.317 35.654-36.11v-179.618c0-19.949-16.172-36.122-36.122-36.122z" fill="#90d8f9"/></g></g><g><path d="m360.293 168.654c-3.85-1.533-8.21.349-9.741 4.197l-63.932 160.742c-1.531 3.849.349 8.21 4.197 9.74 3.815 1.519 8.197-.317 9.741-4.197l63.932-160.742c1.531-3.848-.348-8.21-4.197-9.74z"/><path d="m397.02 201.505c-2.139-3.548-6.747-4.689-10.295-2.551-3.547 2.139-4.689 6.748-2.55 10.295l27.618 45.809-27.685 47.795c-2.076 3.584-.854 8.173 2.73 10.249 3.585 2.076 8.174.852 10.249-2.731l29.906-51.63c1.371-2.365 1.345-5.29-.067-7.631z"/><path d="m239.319 255.057 27.618-45.809c2.139-3.547.997-8.156-2.55-10.295-3.55-2.139-8.157-.997-10.295 2.551l-29.907 49.604c-1.412 2.341-1.438 5.266-.067 7.631l29.907 51.63c2.069 3.573 6.652 4.813 10.249 2.731 3.584-2.076 4.807-6.665 2.73-10.249z"/><path d="m468.378 125.548h-285.646c-24.053 0-43.622 19.568-43.622 43.622v179.616c0 24.054 19.568 43.622 43.622 43.622h200.211c2.141 0 4.13.964 5.458 2.644l64.655 81.854c3.462 4.384 9.149 6.107 14.521 4.239 5.327-1.85 8.77-6.688 8.77-12.328v-77.152c20.225-3.779 35.653-21.66 35.653-42.878v-179.616c0-24.054-19.568-43.623-43.622-43.623zm28.622 223.239c0 15.577-12.673 28.412-28.25 28.611-4.104.052-7.404 3.395-7.404 7.499v78.305l-61.174-77.446c-4.189-5.305-10.469-8.347-17.229-8.347h-200.211c-15.782 0-28.622-12.84-28.622-28.622v-179.616c0-15.782 12.839-28.622 28.622-28.622h285.646c15.782 0 28.622 12.84 28.622 28.622z"/><path d="m110.494 249.56c-5.129.729-9.723 3.368-12.936 7.436l-51.521 65.226v-65.372c0-4.104-3.3-7.447-7.404-7.499-13.031-.166-23.633-10.903-23.633-23.935v-156.362c0-13.203 10.742-23.945 23.945-23.945h248.663c13.203 0 23.945 10.742 23.945 23.945v28.932c0 4.143 3.358 7.5 7.5 7.5s7.5-3.357 7.5-7.5v-28.932c0-21.475-17.471-38.945-38.945-38.945h-248.663c-21.474 0-38.945 17.471-38.945 38.945v156.361c0 18.666 13.371 34.438 31.038 38.124v66.365c0 5.328 3.252 9.901 8.286 11.649 5.115 1.775 10.475.106 13.722-4.006l56.283-71.255c.813-1.029 1.977-1.698 3.274-1.882 4.101-.583 6.954-4.379 6.371-8.48-.582-4.099-4.376-6.947-8.48-6.37z"/></g></g></svg>