<?xml version="1.0" encoding="iso-8859-1"?>
<!-- Generator: Adobe Illustrator 19.0.0, SVG Export Plug-In . SVG Version: 6.00 Build 0)  -->
<svg version="1.1" id="Layer_1" xmlns="http://www.w3.org/2000/svg" xmlns:xlink="http://www.w3.org/1999/xlink" x="0px" y="0px"
	 viewBox="0 0 485 485" style="enable-background:new 0 0 485 485;" xml:space="preserve">
<g>
	<g>
		<path style="fill:#F4661E;" d="M432.5,452.5c0,0,0,11,0,25h-380c0-14,0-25,0-25s0.9-54.7,95-85c0,0,34.1-17.8,45-30
			c0,0,20.6,25,50,25s50-25,50-25c10.9,12.2,45,30,45,30C432.2,397.5,432.5,452.5,432.5,452.5z"/>
		<path style="fill:#FFD7A3;" d="M192.5,305.7c14.6,7.6,31.4,11.8,50,11.8s35.4-4.2,50-11.8v31.8c0,0-20.6,25-50,25s-50-25-50-25
			V305.7z"/>
		<path style="fill:#A18369;" d="M242.5,7.5c60.9,0,88.4,28,100.6,49.7l-0.6,0.3c0,0-65-14.4-65,20c0,25.6-35,25-35,25
			s-35,0.6-35-25c0-34.4-65.1-20-65.1-20l-0.5-0.3C154.1,35.5,181.6,7.5,242.5,7.5z"/>
		<path style="fill:#FFD7A3;" d="M132.5,197.5c0,6.7,0.4,13.3,1.3,19.7c-15.5-2.1-31.3-16.9-31.3-29.7c0-13.8,13.4-20,30-20V197.5z"
			/>
		<path style="fill:#FFD7A3;" d="M352.5,167.5c16.6,0,30,6.2,30,20c0,12.8-15.8,27.6-31.3,29.7c0.9-6.4,1.3-13,1.3-19.7V167.5z"/>
		<path style="fill:#FFE1B2;" d="M352.5,167.5v30c0,6.7-0.4,13.3-1.3,19.7c-5.4,39.1-26.6,71.9-58.7,88.5
			c-14.6,7.6-31.4,11.8-50,11.8s-35.4-4.2-50-11.8c-32.1-16.6-53.3-49.4-58.7-88.5c-0.9-6.4-1.3-13-1.3-19.7v-30v-85
			c0,0,1.6-11.4,9.4-25.3l0.5,0.3c0,0,65.1-14.4,65.1,20c0,25.6,35,25,35,25s35,0.6,35-25c0-34.4,65-20,65-20l0.6-0.3
			c7.8,13.9,9.4,25.3,9.4,25.3V167.5z"/>
	</g>
	<g>
		<path style="fill:#231F20;" d="M340.4,360.553c-8.932-4.706-30.926-17.169-40.4-26.111v-24.3
			c30.386-17.373,51.164-48.544,57.804-86.697C375.018,218.516,390,202.361,390,187.5c0-15.044-11.308-25.026-30-27.094V81.977
			l-0.072-0.519c-0.074-0.522-1.893-12.971-10.29-27.934C335.91,29.107,306.181,0,242.5,0s-93.41,29.107-107.14,53.529
			c-8.396,14.958-10.214,27.406-10.288,27.929L125,81.977v78.429c-18.692,2.068-30,12.051-30,27.094
			c0,14.861,14.982,31.017,32.196,35.946c6.646,38.167,27.428,69.336,57.804,86.697v24.299c-9.48,8.947-31.494,21.42-40.417,26.119
			c-97.482,31.626-99.542,89.368-99.582,91.816L45,485h395v-32.541C439.986,449.996,438.545,391.89,340.4,360.553z M200,317.297
			c13.182,5.109,27.424,7.703,42.5,7.703c15.079,0,29.324-2.595,42.5-7.701v17.312C279.87,339.974,263.614,355,242.5,355
			c-20.977,0-37.346-15.055-42.5-20.404V317.297z M375,187.5c0,6.126-6.627,14.466-15.266,19.07
			c0.165-2.964,0.266-31.088,0.266-31.088C373.367,177.356,375,184.268,375,187.5z M242.5,15c44.733,0,70.25,15.68,84.77,32.603
			c-14.705-1.412-35.306-1.199-47.371,8.484C273.423,61.286,270,68.69,270,77.5c0,4.172-1.28,7.465-3.915,10.068
			c-6.204,6.129-18.586,7.435-23.186,7.435c-0.094,0-0.185-0.001-0.271-0.002l-0.129-0.002l-0.11,0.002
			c-4.37,0.045-17.145-1.179-23.475-7.433C216.28,84.965,215,81.672,215,77.5c0-8.803-3.422-16.202-9.895-21.4
			c-12.052-9.676-32.641-9.907-47.368-8.504C172.26,30.674,197.775,15,242.5,15z M110,187.5c0-3.232,1.633-10.144,15-12.018
			c0,0,0.101,28.125,0.266,31.088C116.627,201.966,110,193.626,110,187.5z M141.227,216.156C140.413,210.363,140,204.087,140,197.5
			V83.122c0.343-1.877,1.939-9.467,6.628-18.824c11.728-2.184,38.483-5.014,49.085,3.498C198.638,70.145,200,73.228,200,77.5
			c0,8.183,2.914,15.372,8.426,20.791c5.237,5.147,12.641,8.68,22.006,10.497c5.836,1.133,10.659,1.213,11.896,1.213
			c0.138,0,0.208,0,0.344,0c1.238,0,6.061-0.08,11.896-1.213c9.365-1.817,16.769-5.35,22.006-10.497
			C282.086,92.872,285,85.683,285,77.5c0-4.276,1.361-7.361,4.283-9.71c9.637-7.746,34.158-6.359,49.094-3.481
			c4.697,9.377,6.288,16.973,6.623,18.809V197.5c0,6.587-0.413,12.863-1.229,18.674c-5.158,37.347-25.102,67.549-54.733,82.874
			C275.075,306.315,259.418,310,242.5,310s-32.575-3.685-46.555-10.962C166.331,283.723,146.388,253.521,141.227,216.156z M425,470
			H60v-17.362c0.048-0.88,0.904-12.937,11.582-28.015c18.801-26.55,52.912-41.836,78.217-49.984c0,0,28.46-14.881,42.447-26.6
			C200.892,356.18,219.027,370,242.5,370s41.608-13.82,50.254-21.961c13.987,11.719,42.481,26.61,42.481,26.61
			c25.456,8.064,59.721,23.257,78.396,49.836c10.718,15.254,11.344,27.458,11.368,28.096V470H425z"/>
		<path style="fill:#231F20;" d="M242.5,235h20v-15H250v-32.5h-15v40C235,231.643,238.357,235,242.5,235z"/>
	</g>
</g>
<g>
</g>
<g>
</g>
<g>
</g>
<g>
</g>
<g>
</g>
<g>
</g>
<g>
</g>
<g>
</g>
<g>
</g>
<g>
</g>
<g>
</g>
<g>
</g>
<g>
</g>
<g>
</g>
<g>
</g>
</svg>
